<svg width="18" height="22" viewBox="0 0 18 22" fill="none" xmlns="http://www.w3.org/2000/svg">
<path fill-rule="evenodd" clip-rule="evenodd" d="M0.25 2C0.25 1.0335 1.0335 0.25 2 0.25H12.5C12.7126 0.25 12.9152 0.340241 13.0575 0.498276L17.5575 5.49828C17.6814 5.63599 17.75 5.81472 17.75 6V20C17.75 20.9665 16.9665 21.75 16 21.75H2C1.03351 21.75 0.25 20.9665 0.25 20V2ZM2 1.75C1.86193 1.75 1.75 1.86193 1.75 2V20C1.75 20.1381 1.86192 20.25 2 20.25H16C16.1381 20.25 16.25 20.1381 16.25 20V6.2878L12.166 1.75H2Z" fill="#616466"/>
<path fill-rule="evenodd" clip-rule="evenodd" d="M6.25 10.75C6.25 9.17862 7.40064 7.75 9 7.75C10.5994 7.75 11.75 9.17862 11.75 10.75C11.75 12.0628 10.9469 13.2759 9.75 13.6397V14.5C9.75 14.9142 9.41421 15.25 9 15.25C8.58579 15.25 8.25 14.9142 8.25 14.5V13C8.25 12.5858 8.58579 12.25 9 12.25C9.60974 12.25 10.25 11.6639 10.25 10.75C10.25 9.83608 9.60974 9.25 9 9.25C8.39026 9.25 7.75 9.83608 7.75 10.75C7.75 11.1642 7.41421 11.5 7 11.5C6.58579 11.5 6.25 11.1642 6.25 10.75Z" fill="#616466"/>
<path fill-rule="evenodd" clip-rule="evenodd" d="M9 18.5C9.69035 18.5 10.25 17.9403 10.25 17.25C10.25 16.5597 9.69035 16 9 16C8.30965 16 7.75 16.5597 7.75 17.25C7.75 17.9403 8.30965 18.5 9 18.5Z" fill="#616466"/>
<path fill-rule="evenodd" clip-rule="evenodd" d="M12 0.25C12.4142 0.25 12.75 0.585786 12.75 1V5.25H17C17.4142 5.25 17.75 5.58579 17.75 6C17.75 6.41421 17.4142 6.75 17 6.75H12C11.5858 6.75 11.25 6.41421 11.25 6V1C11.25 0.585786 11.5858 0.25 12 0.25Z" fill="#616466"/>
</svg>
