<svg width="16" height="16" viewBox="0 0 16 16" fill="none" xmlns="http://www.w3.org/2000/svg">
<path fill-rule="evenodd" clip-rule="evenodd" d="M2.93244 2.93256C4.22882 1.6362 6.02117 0.833496 8.00004 0.833496C9.97891 0.833496 11.7713 1.6362 13.0676 2.93256C14.364 4.22894 15.1667 6.02129 15.1667 8.00016C15.1667 9.97903 14.364 11.7714 13.0676 13.0678C11.7713 14.3641 9.97891 15.1668 8.00004 15.1668C6.02117 15.1668 4.22882 14.3641 2.93244 13.0678C1.63608 11.7714 0.833374 9.97903 0.833374 8.00016C0.833374 6.0213 1.63609 4.22894 2.93244 2.93256ZM8.00004 1.8335C6.29704 1.8335 4.75606 2.52318 3.63954 3.63967C2.52305 4.75619 1.83337 6.29716 1.83337 8.00016C1.83337 9.70316 2.52305 11.2441 3.63955 12.3606C4.75606 13.4771 6.29704 14.1668 8.00004 14.1668C9.70304 14.1668 11.244 13.4771 12.3605 12.3606C13.477 11.2441 14.1667 9.70316 14.1667 8.00016C14.1667 6.29716 13.477 4.75618 12.3605 3.63967C11.244 2.52318 9.70304 1.8335 8.00004 1.8335Z" fill="#616466"/>
<path fill-rule="evenodd" clip-rule="evenodd" d="M8.00004 3.66683C8.46027 3.66683 8.83337 4.03993 8.83337 4.50016C8.83337 4.9604 8.46027 5.3335 8.00004 5.3335C7.53981 5.3335 7.16671 4.9604 7.16671 4.50016C7.16671 4.03993 7.53981 3.66683 8.00004 3.66683Z" fill="#616466"/>
<path fill-rule="evenodd" clip-rule="evenodd" d="M7.00004 6.66683C7.00004 6.39069 7.2239 6.16683 7.50004 6.16683H8.16671C8.44285 6.16683 8.66671 6.39069 8.66671 6.66683V11.3335C8.66671 11.6096 8.44285 11.8335 8.16671 11.8335C7.89057 11.8335 7.66671 11.6096 7.66671 11.3335V7.16683H7.50004C7.2239 7.16683 7.00004 6.94297 7.00004 6.66683Z" fill="#616466"/>
<path fill-rule="evenodd" clip-rule="evenodd" d="M6.50004 11.3335C6.50004 11.0574 6.7239 10.8335 7.00004 10.8335H9.33337C9.60952 10.8335 9.83337 11.0574 9.83337 11.3335C9.83337 11.6096 9.60952 11.8335 9.33337 11.8335H7.00004C6.7239 11.8335 6.50004 11.6096 6.50004 11.3335Z" fill="#616466"/>
</svg>
