<svg width="16" height="16" viewBox="0 0 16 16" fill="none" xmlns="http://www.w3.org/2000/svg">
<path d="M1.30233 2.2C1.19957 2.2 1.11628 2.28954 1.11628 2.4V13.6C1.11628 13.7105 1.19957 13.8 1.30233 13.8H14.6977C14.8004 13.8 14.8837 13.7105 14.8837 13.6V2.4C14.8837 2.28954 14.8004 2.2 14.6977 2.2H1.30233ZM0 2.4C0 1.6268 0.583071 1 1.30233 1H14.6977C15.4169 1 16 1.6268 16 2.4V13.6C16 14.3732 15.4169 15 14.6977 15H1.30233C0.583071 15 0 14.3732 0 13.6V2.4Z" fill="#616466"/>
<path d="M3.34884 6.8C3.34884 5.58499 4.26511 4.6 5.39535 4.6C6.52559 4.6 7.44186 5.58499 7.44186 6.8C7.44186 8.01501 6.52559 9 5.39535 9C4.26511 9 3.34884 8.01501 3.34884 6.8ZM5.39535 5.8C4.88161 5.8 4.46512 6.24773 4.46512 6.8C4.46512 7.35227 4.88161 7.8 5.39535 7.8C5.90909 7.8 6.32558 7.35227 6.32558 6.8C6.32558 6.24773 5.90909 5.8 5.39535 5.8Z" fill="#616466"/>
<path d="M2.60465 10.8C2.60465 9.14315 3.85409 7.8 5.39535 7.8C6.93661 7.8 8.18605 9.14315 8.18605 10.8C8.18605 11.1314 7.93616 11.4 7.62791 11.4C7.31966 11.4 7.06977 11.1314 7.06977 10.8C7.06977 9.80589 6.3201 9 5.39535 9C4.4706 9 3.72093 9.80589 3.72093 10.8C3.72093 11.1314 3.47104 11.4 3.16279 11.4C2.85454 11.4 2.60465 11.1314 2.60465 10.8Z" fill="#616466"/>
<path d="M8.93023 6.4C8.93023 6.06863 9.18012 5.8 9.48837 5.8H12.4651C12.7734 5.8 13.0233 6.06863 13.0233 6.4C13.0233 6.73137 12.7734 7 12.4651 7H9.48837C9.18012 7 8.93023 6.73137 8.93023 6.4Z" fill="#616466"/>
<path d="M9.67442 9.6C9.67442 9.26863 9.92431 9 10.2326 9H12.4651C12.7734 9 13.0233 9.26863 13.0233 9.6C13.0233 9.93137 12.7734 10.2 12.4651 10.2H10.2326C9.92431 10.2 9.67442 9.93137 9.67442 9.6Z" fill="#616466"/>
</svg>
