<svg width="16" height="18" viewBox="0 0 16 18" xmlns="http://www.w3.org/2000/svg">
<path d="M8 1.14894C6.52724 1.14894 5.33333 2.26346 5.33333 3.6383C5.33333 5.01313 6.52724 6.12766 8 6.12766C9.47276 6.12766 10.6667 5.01313 10.6667 3.6383C10.6667 2.26346 9.47276 1.14894 8 1.14894ZM4.10256 3.6383C4.10256 1.62892 5.84751 0 8 0C10.1525 0 11.8974 1.62892 11.8974 3.6383C11.8974 5.64767 10.1525 7.2766 8 7.2766C5.84751 7.2766 4.10256 5.64767 4.10256 3.6383Z" fill="#616466"/>
<path d="M0 15.8936C0 11.7691 3.58173 8.42553 8 8.42553C12.4183 8.42553 16 11.7691 16 15.8936C16 16.2109 15.7245 16.4681 15.3846 16.4681C15.0447 16.4681 14.7692 16.2109 14.7692 15.8936C14.7692 12.4037 11.7385 9.57447 8 9.57447C4.26147 9.57447 1.23077 12.4037 1.23077 15.8936C1.23077 16.2109 0.955252 16.4681 0.615385 16.4681C0.275517 16.4681 0 16.2109 0 15.8936Z" fill="#616466"/>
<path fill-rule="evenodd" clip-rule="evenodd" d="M8 13.0213C7.20698 13.0213 6.5641 13.6214 6.5641 14.3617C6.5641 15.102 7.20698 15.7021 8 15.7021C8.79302 15.7021 9.4359 15.102 9.4359 14.3617C9.4359 13.6214 8.79302 13.0213 8 13.0213ZM5.33333 14.3617C5.33333 12.9869 6.52724 11.8723 8 11.8723C9.47276 11.8723 10.6667 12.9869 10.6667 14.3617C10.6667 15.7365 9.47276 16.8511 8 16.8511C6.52724 16.8511 5.33333 15.7365 5.33333 14.3617Z" fill="#616466"/>
<path fill-rule="evenodd" clip-rule="evenodd" d="M8 10.7234C8.33987 10.7234 8.61539 10.9806 8.61539 11.2979V12.4468C8.61539 12.7641 8.33987 13.0213 8 13.0213C7.66013 13.0213 7.38462 12.7641 7.38462 12.4468V11.2979C7.38462 10.9806 7.66013 10.7234 8 10.7234Z" fill="#616466"/>
<path fill-rule="evenodd" clip-rule="evenodd" d="M8 15.7021C8.33987 15.7021 8.61539 15.9593 8.61539 16.2766V17.4255C8.61539 17.7428 8.33987 18 8 18C7.66013 18 7.38462 17.7428 7.38462 17.4255V16.2766C7.38462 15.9593 7.66013 15.7021 8 15.7021Z" fill="#616466"/>
<path fill-rule="evenodd" clip-rule="evenodd" d="M10.8263 11.6576C11.0666 11.882 11.0666 12.2457 10.8263 12.47L9.95598 13.2825C9.71565 13.5068 9.32601 13.5068 9.08569 13.2825C8.84537 13.0581 8.84537 12.6944 9.08569 12.47L9.95597 11.6576C10.1963 11.4333 10.5859 11.4333 10.8263 11.6576Z" fill="#616466"/>
<path fill-rule="evenodd" clip-rule="evenodd" d="M6.72369 15.4874C6.96401 15.7118 6.96401 16.0755 6.72369 16.2998L5.85341 17.1122C5.61309 17.3366 5.22345 17.3366 4.98313 17.1122C4.7428 16.8879 4.7428 16.5242 4.98313 16.2998L5.8534 15.4874C6.09373 15.2631 6.48337 15.2631 6.72369 15.4874Z" fill="#616466"/>
<path fill-rule="evenodd" clip-rule="evenodd" d="M5.10332 11.6576C5.34364 11.4333 5.73328 11.4333 5.9736 11.6576L6.84388 12.47C7.0842 12.6944 7.0842 13.0581 6.84388 13.2825C6.60356 13.5068 6.21392 13.5068 5.9736 13.2825L5.10332 12.47C4.863 12.2457 4.863 11.882 5.10332 11.6576Z" fill="#616466"/>
<path fill-rule="evenodd" clip-rule="evenodd" d="M9.20588 15.4874C9.44621 15.2631 9.83585 15.2631 10.0762 15.4874L10.9464 16.2998C11.1868 16.5242 11.1868 16.8879 10.9464 17.1122C10.7061 17.3366 10.3165 17.3366 10.0762 17.1122L9.20588 16.2998C8.96556 16.0755 8.96556 15.7118 9.20588 15.4874Z" fill="#616466"/>
<path fill-rule="evenodd" clip-rule="evenodd" d="M4.10256 14.3617C4.10256 14.0444 4.37808 13.7872 4.71795 13.7872H5.94872C6.28859 13.7872 6.5641 14.0444 6.5641 14.3617C6.5641 14.679 6.28859 14.9362 5.94872 14.9362H4.71795C4.37808 14.9362 4.10256 14.679 4.10256 14.3617Z" fill="#616466"/>
<path fill-rule="evenodd" clip-rule="evenodd" d="M9.4359 14.3617C9.4359 14.0444 9.71141 13.7872 10.0513 13.7872H11.2821C11.6219 13.7872 11.8974 14.0444 11.8974 14.3617C11.8974 14.679 11.6219 14.9362 11.2821 14.9362H10.0513C9.71141 14.9362 9.4359 14.679 9.4359 14.3617Z" fill="#616466"/>
</svg>
