<svg width="16" height="16" viewBox="0 0 16 16" fill="none" xmlns="http://www.w3.org/2000/svg">
<path fill-rule="evenodd" clip-rule="evenodd" d="M0.25 16.75C0.25 13.9886 2.48858 11.75 5.25 11.75C8.01141 11.75 10.25 13.9886 10.25 16.75C10.25 19.5114 8.01141 21.75 5.25 21.75C2.48858 21.75 0.25 19.5114 0.25 16.75ZM5.25 13.25C3.317 13.25 1.75 14.817 1.75 16.75C1.75 18.683 3.317 20.25 5.25 20.25C7.18299 20.25 8.75 18.683 8.75 16.75C8.75 14.817 7.18299 13.25 5.25 13.25Z" fill="#1C1B1F"/>
<path fill-rule="evenodd" clip-rule="evenodd" d="M13.25 16.5C13.25 13.6005 15.6005 11.25 18.5 11.25C21.3995 11.25 23.75 13.6005 23.75 16.5C23.75 19.3995 21.3995 21.75 18.5 21.75C15.6005 21.75 13.25 19.3995 13.25 16.5ZM18.5 12.75C16.4289 12.75 14.75 14.4289 14.75 16.5C14.75 18.5711 16.4289 20.25 18.5 20.25C20.5711 20.25 22.25 18.5711 22.25 16.5C22.25 14.4289 20.5711 12.75 18.5 12.75Z" fill="#1C1B1F"/>
<path fill-rule="evenodd" clip-rule="evenodd" d="M8.74854 3C8.74854 2.58579 9.08432 2.25 9.49854 2.25H13.9988C14.3216 2.25 14.6082 2.45654 14.7103 2.76276L19.2117 16.2628C19.3427 16.6557 19.1304 17.0805 18.7374 17.2115C18.3445 17.3425 17.9197 17.1302 17.7887 16.7372L13.4583 3.75H9.49854C9.08432 3.75 8.74854 3.41421 8.74854 3Z" fill="#1C1B1F"/>
<path fill-rule="evenodd" clip-rule="evenodd" d="M16.4304 7.9177C16.6866 8.24315 16.6305 8.7147 16.305 8.97092L5.99277 17.0893C5.66731 17.3455 5.19576 17.2894 4.93954 16.964C4.68332 16.6385 4.73945 16.1669 5.06491 15.9107L15.3772 7.79233C15.7026 7.53611 16.1742 7.59224 16.4304 7.9177Z" fill="#1C1B1F"/>
<path fill-rule="evenodd" clip-rule="evenodd" d="M21.2597 4.29638C21.6483 4.43985 21.847 4.87116 21.7035 5.25973L20.7804 7.75973C20.6717 8.05432 20.3909 8.24996 20.0769 8.24996H15.8408C15.4266 8.24996 15.0908 7.91417 15.0908 7.49996C15.0908 7.08575 15.4266 6.74996 15.8408 6.74996H19.5543L20.2963 4.74019C20.4398 4.35161 20.8711 4.15292 21.2597 4.29638Z" fill="#1C1B1F"/>
<path fill-rule="evenodd" clip-rule="evenodd" d="M3.25 7.98682C3.25 7.5726 3.58579 7.23682 4 7.23682H7.5C7.91421 7.23682 8.25 7.5726 8.25 7.98682C8.25 8.40103 7.91421 8.73682 7.5 8.73682H4C3.58579 8.73682 3.25 8.40103 3.25 7.98682Z" fill="#1C1B1F"/>
<path fill-rule="evenodd" clip-rule="evenodd" d="M7.27549 7.28441C7.67067 7.16031 8.09164 7.38006 8.21574 7.77524L9.85209 12.9858C9.9762 13.381 9.75645 13.8019 9.36126 13.9261C8.96608 14.0502 8.54511 13.8304 8.42101 13.4352L6.78466 8.22467C6.66055 7.82949 6.8803 7.40852 7.27549 7.28441Z" fill="#1C1B1F"/>
</svg>
