<svg width="18" height="18" viewBox="0 0 18 18" xmlns="http://www.w3.org/2000/svg">
<path fill-rule="evenodd" clip-rule="evenodd" d="M0 1.61538C0 0.723232 0.723232 0 1.61538 0H6.23077C7.12294 0 7.84615 0.723239 7.84615 1.61538V6.23077C7.84615 7.12294 7.12294 7.84615 6.23077 7.84615H1.61538C0.723239 7.84615 0 7.12294 0 6.23077V1.61538ZM1.61538 1.38462C1.48793 1.38462 1.38462 1.48793 1.38462 1.61538V6.23077C1.38462 6.35823 1.48793 6.46154 1.61538 6.46154H6.23077C6.35823 6.46154 6.46154 6.35823 6.46154 6.23077V1.61538C6.46154 1.48793 6.35823 1.38462 6.23077 1.38462H1.61538Z" fill="#1B2124"/>
<path fill-rule="evenodd" clip-rule="evenodd" d="M0 11.7692C0 10.8771 0.723239 10.1538 1.61538 10.1538H6.23077C7.12294 10.1538 7.84615 10.8771 7.84615 11.7692V16.3846C7.84615 17.2768 7.12294 18 6.23077 18H1.61538C0.723239 18 0 17.2768 0 16.3846V11.7692ZM1.61538 11.5385C1.48793 11.5385 1.38462 11.6418 1.38462 11.7692V16.3846C1.38462 16.5121 1.48793 16.6154 1.61538 16.6154H6.23077C6.35823 16.6154 6.46154 16.5121 6.46154 16.3846V11.7692C6.46154 11.6418 6.35823 11.5385 6.23077 11.5385H1.61538Z" fill="#1B2124"/>
<path fill-rule="evenodd" clip-rule="evenodd" d="M10.1538 1.61538C10.1538 0.723239 10.8771 0 11.7692 0H16.3846C17.2768 0 18 0.723239 18 1.61538V6.23077C18 7.12294 17.2768 7.84615 16.3846 7.84615H11.7692C10.8771 7.84615 10.1538 7.12294 10.1538 6.23077V1.61538ZM11.7692 1.38462C11.6418 1.38462 11.5385 1.48793 11.5385 1.61538V6.23077C11.5385 6.35823 11.6418 6.46154 11.7692 6.46154H16.3846C16.5121 6.46154 16.6154 6.35823 16.6154 6.23077V1.61538C16.6154 1.48793 16.5121 1.38462 16.3846 1.38462H11.7692Z" fill="#1B2124"/>
<path fill-rule="evenodd" clip-rule="evenodd" d="M10.1538 11.7692C10.1538 10.8771 10.8771 10.1538 11.7692 10.1538H16.3846C17.2768 10.1538 18 10.8771 18 11.7692V16.3846C18 17.2768 17.2768 18 16.3846 18H11.7692C10.8771 18 10.1538 17.2768 10.1538 16.3846V11.7692ZM11.7692 11.5385C11.6418 11.5385 11.5385 11.6418 11.5385 11.7692V16.3846C11.5385 16.5121 11.6418 16.6154 11.7692 16.6154H16.3846C16.5121 16.6154 16.6154 16.5121 16.6154 16.3846V11.7692C16.6154 11.6418 16.5121 11.5385 16.3846 11.5385H11.7692Z" fill="#1B2124"/>
</svg>
