<svg width="18" height="18" viewBox="0 0 18 18" xmlns="http://www.w3.org/2000/svg">
<path fill-rule="evenodd" clip-rule="evenodd" d="M2.07692 1.38462C1.69457 1.38462 1.38462 1.69457 1.38462 2.07692V15.9231C1.38462 16.3054 1.69457 16.6154 2.07692 16.6154H15.9231C16.3054 16.6154 16.6154 16.3054 16.6154 15.9231V2.07692C16.6154 1.69457 16.3054 1.38462 15.9231 1.38462H2.07692ZM0 2.07692C0 0.92987 0.92987 0 2.07692 0H15.9231C17.0701 0 18 0.92987 18 2.07692V15.9231C18 17.0701 17.0701 18 15.9231 18H2.07692C0.92987 18 0 17.0701 0 15.9231V2.07692Z" fill="#616466"/>
<path fill-rule="evenodd" clip-rule="evenodd" d="M6.76598 3.69627C7.08258 3.73015 7.33525 3.97561 7.37827 4.2911L8.3986 11.7736L9.73845 8.28997C9.83134 8.04846 10.0512 7.87891 10.3083 7.8504C10.5655 7.82189 10.8171 7.93917 10.9607 8.15447L12.264 10.1095L13.0615 9.04618C13.1923 8.87185 13.3975 8.76926 13.6154 8.76926H15C15.3824 8.76926 15.6923 9.07922 15.6923 9.46157C15.6923 9.84392 15.3824 10.1539 15 10.1539H13.9615L12.7846 11.7231C12.6498 11.9028 12.4362 12.006 12.2116 11.9998C11.987 11.9935 11.7794 11.8787 11.6547 11.6917L10.5506 10.0355L8.72309 14.787C8.60964 15.082 8.31083 15.2627 7.99692 15.2262C7.683 15.1896 7.43366 14.9452 7.39096 14.632L6.38506 7.25539L5.49678 9.69816C5.39729 9.97175 5.13727 10.1539 4.84615 10.1539H3.46154C3.07919 10.1539 2.76923 9.84392 2.76923 9.46157C2.76923 9.07922 3.07919 8.76926 3.46154 8.76926H4.36124L6.04168 4.14805C6.1505 3.84881 6.44938 3.66238 6.76598 3.69627Z" fill="#616466"/>
</svg>
