<svg width="18" height="18" viewBox="0 0 18 18" xmlns="http://www.w3.org/2000/svg">
<path fill-rule="evenodd" clip-rule="evenodd" d="M0 0.627907C0 0.281124 0.281124 0 0.627907 0H17.3721C17.7189 0 18 0.281124 18 0.627907V7.32558C18 7.67236 17.7189 7.95349 17.3721 7.95349H0.627907C0.281124 7.95349 0 7.67236 0 7.32558V0.627907ZM1.25581 1.25581V6.69767H16.7442V1.25581H1.25581Z" fill="#616466"/>
<path fill-rule="evenodd" clip-rule="evenodd" d="M0 10.6744C0 10.3276 0.281124 10.0465 0.627907 10.0465H17.3721C17.7189 10.0465 18 10.3276 18 10.6744V17.3721C18 17.7189 17.7189 18 17.3721 18H0.627907C0.281124 18 0 17.7189 0 17.3721V10.6744ZM1.25581 11.3023V16.7442H16.7442V11.3023H1.25581Z" fill="#616466"/>
<path d="M4.39535 3.13953H3.55814C3.32694 3.13953 3.13953 3.32694 3.13953 3.55814V4.39535C3.13953 4.62654 3.32694 4.81395 3.55814 4.81395H4.39535C4.62654 4.81395 4.81395 4.62654 4.81395 4.39535V3.55814C4.81395 3.32694 4.62654 3.13953 4.39535 3.13953Z" fill="#616466"/>
<path d="M4.39535 13.186H3.55814C3.32694 13.186 3.13953 13.3735 3.13953 13.6047V14.4419C3.13953 14.6731 3.32694 14.8605 3.55814 14.8605H4.39535C4.62654 14.8605 4.81395 14.6731 4.81395 14.4419V13.6047C4.81395 13.3735 4.62654 13.186 4.39535 13.186Z" fill="#616466"/>
<path d="M7.74419 3.13953H6.90698C6.67578 3.13953 6.48837 3.32694 6.48837 3.55814V4.39535C6.48837 4.62654 6.67578 4.81395 6.90698 4.81395H7.74419C7.97538 4.81395 8.16279 4.62654 8.16279 4.39535V3.55814C8.16279 3.32694 7.97538 3.13953 7.74419 3.13953Z" fill="#616466"/>
<path d="M7.74419 13.186H6.90698C6.67578 13.186 6.48837 13.3735 6.48837 13.6047V14.4419C6.48837 14.6731 6.67578 14.8605 6.90698 14.8605H7.74419C7.97538 14.8605 8.16279 14.6731 8.16279 14.4419V13.6047C8.16279 13.3735 7.97538 13.186 7.74419 13.186Z" fill="#616466"/>
</svg>
