<svg width="18" height="18" viewBox="0 0 18 18" fill="none" xmlns="http://www.w3.org/2000/svg">
<path fill-rule="evenodd" clip-rule="evenodd" d="M0 13.6154C0 13.233 0.281124 12.9231 0.627907 12.9231H3.97674C4.32353 12.9231 4.60465 13.233 4.60465 13.6154V17.3077C4.60465 17.69 4.32353 18 3.97674 18H0.627907C0.281124 18 0 17.69 0 17.3077V13.6154ZM1.25581 14.3077V16.6154H3.34884V14.3077H1.25581Z" fill="#616466"/>
<path fill-rule="evenodd" clip-rule="evenodd" d="M1.67442 0.692308C1.67442 0.309957 1.95554 0 2.30233 0H15.6977C16.0445 0 16.3256 0.309957 16.3256 0.692308V6.23077C16.3256 6.61312 16.0445 6.92308 15.6977 6.92308H2.30233C1.95554 6.92308 1.67442 6.61312 1.67442 6.23077V0.692308ZM2.93023 1.38462V5.53846H15.0698V1.38462H2.93023Z" fill="#616466"/>
<path fill-rule="evenodd" clip-rule="evenodd" d="M9 5.53846C9.34678 5.53846 9.62791 5.84842 9.62791 6.23077V13.6154C9.62791 13.9977 9.34678 14.3077 9 14.3077C8.65322 14.3077 8.37209 13.9977 8.37209 13.6154V6.23077C8.37209 5.84842 8.65322 5.53846 9 5.53846Z" fill="#616466"/>
<path fill-rule="evenodd" clip-rule="evenodd" d="M1.67442 9.92308C1.67442 9.54073 1.95554 9.23077 2.30233 9.23077H15.6977C16.0445 9.23077 16.3256 9.54073 16.3256 9.92308V13.6154C16.3256 13.9977 16.0445 14.3077 15.6977 14.3077C15.3509 14.3077 15.0698 13.9977 15.0698 13.6154V10.6154H2.93023V13.6154C2.93023 13.9977 2.64911 14.3077 2.30233 14.3077C1.95554 14.3077 1.67442 13.9977 1.67442 13.6154V9.92308Z" fill="#616466"/>
<path fill-rule="evenodd" clip-rule="evenodd" d="M13.3953 13.6154C13.3953 13.233 13.6765 12.9231 14.0233 12.9231H17.3721C17.7189 12.9231 18 13.233 18 13.6154V17.3077C18 17.69 17.7189 18 17.3721 18H14.0233C13.6765 18 13.3953 17.69 13.3953 17.3077V13.6154ZM14.6512 14.3077V16.6154H16.7442V14.3077H14.6512Z" fill="#616466"/>
<path fill-rule="evenodd" clip-rule="evenodd" d="M6.69767 13.6154C6.69767 13.233 6.9788 12.9231 7.32558 12.9231H10.6744C11.0212 12.9231 11.3023 13.233 11.3023 13.6154V17.3077C11.3023 17.69 11.0212 18 10.6744 18H7.32558C6.9788 18 6.69767 17.69 6.69767 17.3077V13.6154ZM7.95349 14.3077V16.6154H10.0465V14.3077H7.95349Z" fill="#616466"/>
<path fill-rule="evenodd" clip-rule="evenodd" d="M4.18605 3.46154C4.18605 3.07919 4.46717 2.76923 4.81395 2.76923H5.65116C5.99795 2.76923 6.27907 3.07919 6.27907 3.46154C6.27907 3.84389 5.99795 4.15385 5.65116 4.15385H4.81395C4.46717 4.15385 4.18605 3.84389 4.18605 3.46154Z" fill="#616466"/>
</svg>
