<svg width="16" height="16" viewBox="0 0 16 16" fill="none" xmlns="http://www.w3.org/2000/svg">
<path d="M0 0.615385C0 0.275517 0.241077 0 0.538462 0H6.99702C7.2944 0 7.53548 0.275517 7.53548 0.615385C7.53548 0.955252 7.2944 1.23077 6.99702 1.23077H1.07692V14.7692H7C7.29738 14.7692 7.53846 15.0447 7.53846 15.3846C7.53846 15.7245 7.29738 16 7 16H0.538462C0.241077 16 0 15.7245 0 15.3846V0.615385Z" fill="#616466"/>
<path d="M9.85002 3.87255C10.0603 3.63223 10.4012 3.63223 10.6115 3.87255L13.8423 7.56486C14.0526 7.80518 14.0526 8.19482 13.8423 8.43514L10.6115 12.1274C10.4012 12.3678 10.0603 12.3678 9.85002 12.1274C9.63974 11.8871 9.63974 11.4975 9.85002 11.2572L12.7 8L9.85002 4.74284C9.63974 4.50251 9.63974 4.11287 9.85002 3.87255Z" fill="#616466"/>
<path d="M3.58974 7.99659C3.58974 7.65673 3.83082 7.38121 4.12821 7.38121H13.4615C13.7589 7.38121 14 7.65673 14 7.99659C14 8.33646 13.7589 8.61198 13.4615 8.61198H4.12821C3.83082 8.61198 3.58974 8.33646 3.58974 7.99659Z" fill="#616466"/>
</svg>
