<svg width="18" height="18" viewBox="0 0 18 18" xmlns="http://www.w3.org/2000/svg">
<path d="M2.07692 1.38462C1.69457 1.38462 1.38462 1.69457 1.38462 2.07692V15.9231C1.38462 16.3054 1.69457 16.6154 2.07692 16.6154H15.9231C16.3054 16.6154 16.6154 16.3054 16.6154 15.9231V2.07692C16.6154 1.69457 16.3054 1.38462 15.9231 1.38462H2.07692ZM0 2.07692C0 0.92987 0.92987 0 2.07692 0H15.9231C17.0701 0 18 0.92987 18 2.07692V15.9231C18 17.0701 17.0701 18 15.9231 18H2.07692C0.92987 18 0 17.0701 0 15.9231V2.07692Z" fill="#616466"/>
<path d="M3.63652 12.1824C3.36616 11.912 3.36616 11.4737 3.63652 11.2033L6.24738 8.59248C6.51752 8.32235 6.95542 8.32209 7.22587 8.59191L8.76065 10.1231L13.1249 5.74217C13.3948 5.47129 13.8331 5.47046 14.104 5.7403C14.3749 6.01015 14.3757 6.4485 14.1059 6.71937L9.25263 11.5911C9.12298 11.7212 8.94692 11.7945 8.76323 11.7948C8.57953 11.7951 8.40325 11.7224 8.2732 11.5926L6.73749 10.0605L4.6156 12.1824C4.34523 12.4528 3.90689 12.4528 3.63652 12.1824Z" fill="#616466"/>
<path d="M9.23077 6.23077C9.23077 5.84842 9.54073 5.53846 9.92308 5.53846H13.6154C13.9977 5.53846 14.3077 5.84842 14.3077 6.23077V9.92308C14.3077 10.3054 13.9977 10.6154 13.6154 10.6154C13.233 10.6154 12.9231 10.3054 12.9231 9.92308V6.92308H9.92308C9.54073 6.92308 9.23077 6.61312 9.23077 6.23077Z" fill="#616466"/>
</svg>
