<svg width="16" height="16" viewBox="0 0 16 16" fill="none" xmlns="http://www.w3.org/2000/svg">
<path d="M5.86118 0.0210544C6.11672 -0.0523317 6.38676 0.0709293 6.50726 0.315961C6.78488 0.880503 7.34965 1.26505 8 1.26505C8.65035 1.26505 9.21512 0.880503 9.49274 0.315961C9.61324 0.0709293 9.88328 -0.0523317 10.1388 0.0210544C11.3923 0.381039 12.5216 1.04919 13.4463 1.94116C13.6268 2.11535 13.6758 2.39182 13.5668 2.62125C13.4572 2.85185 13.3953 3.11169 13.3953 3.38815C13.3953 4.34751 14.145 5.12524 15.0698 5.12524L15.0931 5.12506C15.3399 5.12141 15.5596 5.28628 15.6336 5.53052C15.8718 6.31725 16 7.15383 16 8.02038C16 8.59232 15.9441 9.15136 15.8376 9.69169C15.7803 9.98223 15.5207 10.1809 15.2362 10.1519C15.1817 10.1463 15.1262 10.1435 15.0698 10.1435C14.145 10.1435 13.3953 10.9212 13.3953 11.8806C13.3953 12.3076 13.5432 12.6973 13.7892 12.9999C13.9736 13.2265 13.963 13.5611 13.7648 13.7748C12.8206 14.7926 11.6276 15.5615 10.2862 15.9758C9.99496 16.0657 9.68785 15.8974 9.59532 15.5971C9.37931 14.8961 8.74594 14.3897 8 14.3897C7.25405 14.3897 6.62069 14.8961 6.40468 15.5971C6.31215 15.8974 6.00504 16.0657 5.71378 15.9758C4.37243 15.5615 3.17938 14.7926 2.23519 13.7748C2.03695 13.5611 2.02641 13.2265 2.21077 12.9999C2.45685 12.6973 2.60465 12.3076 2.60465 11.8806C2.60465 10.9212 1.85499 10.1435 0.930233 10.1435C0.873847 10.1435 0.818328 10.1463 0.763786 10.1519C0.479297 10.1809 0.219674 9.98223 0.162388 9.69169C0.0558507 9.15135 0 8.59232 0 8.02038C0 7.15383 0.128204 6.31725 0.36641 5.53051C0.440359 5.28628 0.660127 5.12141 0.906866 5.12506L0.930233 5.12524C1.85499 5.12524 2.60465 4.34751 2.60465 3.38815C2.60465 3.11169 2.5428 2.85185 2.43321 2.62125C2.32416 2.39182 2.37316 2.11535 2.55374 1.94116C3.47841 1.04919 4.60765 0.381039 5.86118 0.0210544ZM3.59648 2.53112C3.67741 2.80235 3.72093 3.09033 3.72093 3.38815C3.72093 4.84688 2.68101 6.05364 1.32832 6.25406C1.18994 6.81845 1.11628 7.41013 1.11628 8.02038C1.11628 8.35188 1.13801 8.67784 1.18003 8.99687C2.60426 9.12794 3.72093 10.369 3.72093 11.8806C3.72093 12.3955 3.59099 12.8797 3.36351 13.299C4.00108 13.9021 4.74792 14.3822 5.56921 14.7039C6.04805 13.8253 6.95668 13.2316 8 13.2316C9.04332 13.2316 9.95195 13.8253 10.4308 14.7039C11.2521 14.3822 11.9989 13.9021 12.6365 13.299C12.409 12.8797 12.2791 12.3955 12.2791 11.8806C12.2791 10.369 13.3957 9.12794 14.82 8.99687C14.862 8.67784 14.8837 8.35188 14.8837 8.02038C14.8837 7.41014 14.8101 6.81846 14.6717 6.25406C13.319 6.05363 12.2791 4.84688 12.2791 3.38815C12.2791 3.09033 12.3226 2.80236 12.4035 2.53112C11.7669 1.9808 11.0334 1.54772 10.2339 1.26331C9.72533 1.9668 8.91436 2.42311 8 2.42311C7.08564 2.42311 6.27467 1.9668 5.7661 1.26331C4.96656 1.54772 4.2331 1.9808 3.59648 2.53112Z" fill="#616466"/>
<path d="M4.83721 8.02038C4.83721 6.20824 6.25324 4.73922 8 4.73922C9.74676 4.73922 11.1628 6.20824 11.1628 8.02038C11.1628 9.83252 9.74676 11.3015 8 11.3015C6.25324 11.3015 4.83721 9.83252 4.83721 8.02038ZM8 5.89727C6.86974 5.89727 5.95349 6.84782 5.95349 8.02038C5.95349 9.19294 6.86974 10.1435 8 10.1435C9.13026 10.1435 10.0465 9.19294 10.0465 8.02038C10.0465 6.84782 9.13026 5.89727 8 5.89727Z" fill="#616466"/>
</svg>
